<?xml version="1.0" encoding="UTF-8" standalone="no"?>
<svg width="434px" height="434px" viewBox="0 0 434 434" version="1.1" xmlns="http://www.w3.org/2000/svg" xmlns:xlink="http://www.w3.org/1999/xlink" xmlns:sketch="http://www.bohemiancoding.com/sketch/ns">
    <title>server</title>
    <description>Created with Sketch (http://www.bohemiancoding.com/sketch)</description>
    <defs></defs>
    <g id="Page 1" stroke="none" stroke-width="1" fill="none" fill-rule="evenodd">
        <path d="M217,434 C336.845797,434 434,336.845797 434,217 C434,97.1542034 336.845797,0 217,0 C97.1542034,0 0,97.1542034 0,217 C0,336.845797 97.1542034,434 217,434 Z M217,434" id="Oval 1" fill="#373633"></path>
        <g id="svg2" transform="translate(78.023557, 78.023557)">
            <g id="background">
                <path d="M0,0 L0,277.952886 L277.952886,277.952886 L277.952886,0 L0,0 Z M0,0" id="Rectangle"></path>
            </g>
            <g id="server" transform="translate(17.372055, 17.372055)" fill="#28BDF4">
                <path d="M243.208775,69.4882216 L243.208775,0 L0,0 L0,69.4882216 L17.3720554,69.4882216 L17.3720554,86.8602769 L0,86.8602769 L0,156.348498 L17.3720554,156.348498 L17.3720554,173.720554 L0,173.720554 L0,243.208775 L243.208775,243.208775 L243.208775,173.720554 L225.83672,173.720554 L225.83672,156.348498 L243.208775,156.348498 L243.208775,86.8602769 L225.83672,86.8602769 L225.83672,69.4882216 L243.208775,69.4882216 L243.208775,69.4882216 Z M17.3720554,34.7441108 L52.1161662,34.7441108 L52.1161662,52.1161662 L17.3720554,52.1161662 L17.3720554,34.7441108 L17.3720554,34.7441108 Z M17.3720554,121.604388 L52.1161662,121.604388 L52.1161662,138.976443 L17.3720554,138.976443 L17.3720554,121.604388 L17.3720554,121.604388 Z M52.1161662,225.83672 L17.3720554,225.83672 L17.3720554,208.464665 L52.1161662,208.464665 L52.1161662,225.83672 L52.1161662,225.83672 Z M208.464665,173.720554 L34.7441108,173.720554 L34.7441108,156.348498 L208.464665,156.348498 L208.464665,173.720554 L208.464665,173.720554 Z M208.464665,86.8602769 L34.7441108,86.8602769 L34.7441108,69.4882216 L208.464665,69.4882216 L208.464665,86.8602769 L208.464665,86.8602769 Z M208.464665,86.8602769" id="Shape"></path>
            </g>
        </g>
    </g>
</svg>