<?xml version="1.0" encoding="UTF-8" standalone="no"?>
<svg width="541px" height="75px" viewBox="0 0 541 75" version="1.1" xmlns="http://www.w3.org/2000/svg" xmlns:xlink="http://www.w3.org/1999/xlink" xmlns:sketch="http://www.bohemiancoding.com/sketch/ns">
    <title>070213w</title>
    <description>Created with Sketch (http://www.bohemiancoding.com/sketch)</description>
    <defs></defs>
    <g id="Page 1" stroke="none" stroke-width="1" fill="none" fill-rule="evenodd">
        <g id="Group" transform="translate(0.000000, -574.000000)">
            <g transform="translate(384.000000, 328.000000)" id="Bar">
                <g transform="translate(82.000000, 0.000000)">
                    <g id="3" transform="translate(0.000000, 246.000000)">
                        <path d="M37.5,75 C58.2106791,75 75,58.2106791 75,37.5 C75,16.7893209 58.2106791,0 37.5,0 C16.7893209,0 0,16.7893209 0,37.5 C0,58.2106791 16.7893209,75 37.5,75 Z M37.5,75" id="Oval 1" fill="#F5EBE5"></path>
                        <path d="M54.7617819,14.1911042 C54.9183523,13.9596756 54.9966375,13.6511042 54.9966375,13.3425328 C54.9966375,12.2625328 54.1355005,11.4139613 53.0395079,11.4139613 L27.4402535,11.4139613 C26.344261,11.4139613 25.483124,12.2625328 25.483124,13.3425328 C25.483124,14.4225328 26.344261,15.2711042 27.4402535,15.2711042 L48.4206822,15.2711042 L34.7990606,29.0796756 C34.0162088,29.8511042 34.0162088,31.0853899 34.7990606,31.8568185 L34.8773458,31.8568185 C35.2687717,32.3196756 35.8167679,32.628247 36.4430494,32.628247 C40.2007381,32.628247 43.9584268,34.0168185 46.7766934,36.8711042 C49.6732451,39.648247 51.0823784,43.3511042 51.0823784,47.0539613 C51.0823784,50.7568185 49.6732451,54.4596756 46.7766934,57.3139613 C43.8801417,60.0911042 40.1224529,61.4796756 36.3647642,61.4796756 C32.6070755,61.4796756 28.9276719,60.0911042 26.0311202,57.3139613 C25.2482684,56.5425328 23.9957055,56.5425328 23.2911389,57.3139613 C22.508287,58.0853899 22.508287,59.3196756 23.2911389,60.0139613 C26.8922572,63.6396756 31.6676533,65.4139613 36.3647642,65.4139613 C41.1401603,65.4139613 45.9155564,63.5625328 49.5166747,60.0139613 C53.1960783,56.4653899 54.9966375,51.7596756 54.9966375,47.0539613 C54.9966375,42.348247 53.1960783,37.6425328 49.5949599,34.0939613 C46.9332637,31.4711042 43.6452861,29.8511042 40.2007381,29.1568185 L54.370356,14.808247 C54.5269264,14.6539613 54.6834967,14.4225328 54.7617819,14.1911042 C54.7617819,14.1911042 54.6834967,14.4225328 54.7617819,14.1911042 L54.7617819,14.1911042 L54.7617819,14.1911042 Z M54.7617819,14.1911042" fill="#373633"></path>
                    </g>
                </g>
                <g transform="translate(0.000000, 164.000000)">
                    <g id="1" transform="translate(0.000000, 82.000000)">
                        <path d="M37.5,75 C58.2106791,75 75,58.2106791 75,37.5 C75,16.7893209 58.2106791,0 37.5,0 C16.7893209,0 0,16.7893209 0,37.5 C0,58.2106791 16.7893209,75 37.5,75 Z M37.5,75" id="Oval 1" fill="#F5EBE5"></path>
                        <path d="M36.2836344,62.6400342 C36.2836344,63.6475157 37.1594176,64.5 38.1944342,64.5 C39.3090675,64.5 40.1052341,63.6475157 40.1052341,62.6400342 L40.1052341,12.8084514 C40.1848507,12.34346 40.1052341,11.8784685 39.8663841,11.4134771 C39.3886841,10.5609928 38.1148175,10.2509985 37.2390343,10.7159899 L26.4907851,17.070873 C25.5353852,17.5358644 25.2169185,18.6208444 25.7742352,19.6283259 C26.0927018,20.1708159 26.7296351,20.5583088 27.446185,20.5583088 C27.7646517,20.5583088 28.162735,20.4033116 28.401585,20.2483145 L36.2836344,15.7533972 L36.2836344,15.7533972 L36.2836344,62.6400342 L36.2836344,62.6400342 Z M36.2836344,62.6400342" fill="#373633"></path>
                    </g>
                </g>
            </g>
            <g id="Bar">
                <g transform="translate(83.000000, 0.000000)">
                    <g id="7" transform="translate(0.000000, 574.000000)">
                        <path d="M37.5,75 C58.2106791,75 75,58.2106791 75,37.5 C75,16.7893209 58.2106791,0 37.5,0 C16.7893209,0 0,16.7893209 0,37.5 C0,58.2106791 16.7893209,75 37.5,75 Z M37.5,75" id="Oval 1" fill="#F5EBE5"></path>
                        <path d="M31.2680841,66.1868579 C31.5816597,66.341884 31.7384474,66.341884 32.0520229,66.341884 C32.7575679,66.341884 33.4631128,65.8768057 33.7766883,65.1791882 L55.0214302,15.2607817 C55.2566119,14.9507295 55.3350057,14.6406773 55.3350057,14.253112 C55.3350057,14.0205729 55.2566119,13.8655468 55.178218,13.6330076 C55.0214302,13.1679293 54.6294608,12.702851 54.1590975,12.4703118 C53.7671281,12.3152857 53.3751587,12.3152857 52.9831893,12.3927988 L23.9774532,12.3927988 C22.9583327,12.3927988 22.096,13.2454424 22.096,14.253112 C22.096,15.2607817 22.9583327,16.1134253 23.9774532,16.1134253 L50.4745851,16.1134253 L30.1705698,63.7064402 C29.8569943,64.6365968 30.3273576,65.7992926 31.2680841,66.1868579 C31.2680841,66.1868579 30.3273576,65.7992926 31.2680841,66.1868579 L31.2680841,66.1868579 L31.2680841,66.1868579 Z M31.2680841,66.1868579" fill="#373633"></path>
                    </g>
                </g>
                <g transform="translate(0.000000, 574.000000)">
                    <g id="0">
                        <path d="M37.5,75 C58.2106791,75 75,58.2106791 75,37.5 C75,16.7893209 58.2106791,0 37.5,0 C16.7893209,0 0,16.7893209 0,37.5 C0,58.2106791 16.7893209,75 37.5,75 Z M37.5,75" id="Oval 1" fill="#F5EBE5"></path>
                        <path d="M24.1937984,56.1228571 C20.8604651,51.1857143 19,44.5514286 19,37.3 C19,30.0485714 20.8604651,23.4142857 24.1937984,18.4 C27.5271318,13.6171429 32.255814,10.3 37.7596899,10.3 C43.2635659,10.3 47.9922481,13.6171429 51.3255814,18.4 C54.5813953,23.4142857 56.5968992,30.0485714 56.5968992,37.3 C56.5968992,44.5514286 54.5813953,51.1857143 51.3255814,56.1228571 C47.9922481,60.9828571 43.2635659,64.3 37.7596899,64.3 C32.255814,64.3 27.5271318,60.9828571 24.1937984,56.1228571 Z M27.372093,20.56 C24.5813953,24.7257143 22.7984496,30.6657143 22.7984496,37.3 C22.7984496,43.9342857 24.5813953,49.8742857 27.372093,54.04 C30.1627907,58.1285714 33.8837209,60.52 37.7596899,60.52 C41.6356589,60.52 45.2790698,58.1285714 48.1472868,54.04 C50.9379845,49.8742857 52.7984496,43.9342857 52.7984496,37.3 C52.7984496,30.6657143 50.9379845,24.7257143 48.1472868,20.56 C45.2790698,16.3171429 41.6356589,14.08 37.7596899,14.08 C33.8837209,14.08 30.1627907,16.3171429 27.372093,20.56 Z M27.372093,20.56" fill="#373633"></path>
                    </g>
                </g>
            </g>
            <g transform="translate(193.000000, 410.000000)" id="Bar">
                <g transform="translate(84.000000, 0.000000)">
                    <g id="2" transform="translate(0.000000, 164.000000)">
                        <path d="M37.5,75 C58.2106791,75 75,58.2106791 75,37.5 C75,16.7893209 58.2106791,0 37.5,0 C16.7893209,0 0,16.7893209 0,37.5 C0,58.2106791 16.7893209,75 37.5,75 Z M37.5,75" id="Oval 1" fill="#F5EBE5"></path>
                        <path d="M21.4799026,63.16 C21.7889364,63.5457143 22.3297454,63.7 22.8705545,63.7 L23.1795883,63.7 L53.3103793,63.7 C54.314739,63.7 55.1645818,62.8514286 55.1645818,61.8485714 C55.1645818,60.7685714 54.314739,59.92 53.3103793,59.92 L27.7378361,59.92 L49.3701989,40.4028571 C53.2331208,36.8542857 55.1645818,32.0714286 55.1645818,27.2885714 C55.1645818,23.1228571 53.6966714,18.88 50.5290755,15.4857143 C47.0524457,11.5514286 42.2624226,9.7 37.5496578,9.7 C33.3004437,9.7 28.9739711,11.2428571 25.5745998,14.2514286 L22.9478129,16.72 C22.1752286,17.3371429 22.0979701,18.5714286 22.8705545,19.3428571 C23.488622,20.1142857 24.724757,20.1914286 25.4973414,19.42 L28.1241283,17.0285714 C30.8281737,14.6371429 34.1502865,13.48 37.5496578,13.48 C41.3353213,13.48 45.1209848,15.0228571 47.8250301,18.0314286 C50.2200417,20.6542857 51.4561767,23.9714286 51.4561767,27.2885714 C51.4561767,31.1457143 49.8337495,34.8485714 46.8206704,37.6257143 L21.557161,60.3828571 C20.7845767,61.1542857 20.7845767,62.3114286 21.4799026,63.16 C21.4799026,63.16 20.7845767,62.3114286 21.4799026,63.16 L21.4799026,63.16 L21.4799026,63.16 Z M21.4799026,63.16" fill="#373633"></path>
                    </g>
                </g>
                <g transform="translate(0.000000, 164.000000)">
                    <g id="0">
                        <path d="M37.5,75 C58.2106791,75 75,58.2106791 75,37.5 C75,16.7893209 58.2106791,0 37.5,0 C16.7893209,0 0,16.7893209 0,37.5 C0,58.2106791 16.7893209,75 37.5,75 Z M37.5,75" id="Oval 1" fill="#F5EBE5"></path>
                        <path d="M24.1937984,56.1228571 C20.8604651,51.1857143 19,44.5514286 19,37.3 C19,30.0485714 20.8604651,23.4142857 24.1937984,18.4 C27.5271318,13.6171429 32.255814,10.3 37.7596899,10.3 C43.2635659,10.3 47.9922481,13.6171429 51.3255814,18.4 C54.5813953,23.4142857 56.5968992,30.0485714 56.5968992,37.3 C56.5968992,44.5514286 54.5813953,51.1857143 51.3255814,56.1228571 C47.9922481,60.9828571 43.2635659,64.3 37.7596899,64.3 C32.255814,64.3 27.5271318,60.9828571 24.1937984,56.1228571 Z M27.372093,20.56 C24.5813953,24.7257143 22.7984496,30.6657143 22.7984496,37.3 C22.7984496,43.9342857 24.5813953,49.8742857 27.372093,54.04 C30.1627907,58.1285714 33.8837209,60.52 37.7596899,60.52 C41.6356589,60.52 45.2790698,58.1285714 48.1472868,54.04 C50.9379845,49.8742857 52.7984496,43.9342857 52.7984496,37.3 C52.7984496,30.6657143 50.9379845,24.7257143 48.1472868,20.56 C45.2790698,16.3171429 41.6356589,14.08 37.7596899,14.08 C33.8837209,14.08 30.1627907,16.3171429 27.372093,20.56 Z M27.372093,20.56" fill="#373633"></path>
                    </g>
                </g>
            </g>
            <path d="M178,647 C181.313709,647 184,644.313709 184,641 C184,637.686291 181.313709,635 178,635 C174.686291,635 172,637.686291 172,641 C172,644.313709 174.686291,647 178,647 Z M178,647" id="Oval 61" fill="#373633"></path>
            <path d="M369,647 C372.313709,647 375,644.313709 375,641 C375,637.686291 372.313709,635 369,635 C365.686291,635 363,637.686291 363,641 C363,644.313709 365.686291,647 369,647 Z M369,647" id="Oval 61" fill="#373633"></path>
        </g>
    </g>
</svg>