<?xml version="1.0" encoding="UTF-8" standalone="no"?>
<svg width="206px" height="206px" viewBox="0 0 206 206" version="1.1" xmlns="http://www.w3.org/2000/svg" xmlns:xlink="http://www.w3.org/1999/xlink" xmlns:sketch="http://www.bohemiancoding.com/sketch/ns">
    <title>backback</title>
    <description>Created with Sketch (http://www.bohemiancoding.com/sketch)</description>
    <defs></defs>
    <g id="Page 1" stroke="none" stroke-width="1" fill="none" fill-rule="evenodd">
        <g id="Group" transform="translate(0.000000, 1.000000)" fill="#373633">
            <path d="M42.3247035,110.392011 L68.6752965,134.646534 C73.5468658,139.130592 77.5,137.398743 77.5,130.77386 L77.5,73.7646842 C77.5,67.1466382 73.5490456,65.4059462 68.6752965,69.8920107 L42.3247035,94.1465338 C37.4531342,98.6305919 37.4509544,105.905946 42.3247035,110.392011 Z M100,205 C44.7715223,205 0,160.228478 0,105 C0,49.7715223 44.7715223,5 100,5 C155.228478,5 200,49.7715223 200,105 C200,160.228478 155.228478,205 100,205 Z M156.401203,103.284912 C156.401203,96.6559245 151.023002,91.2820681 144.401385,91.2820681 L98.9931826,91.2820681 C95.6832393,91.2820681 93,93.9631718 93,97.2832059 L93,106.620818 C93,109.935155 95.6897808,112.621956 99.0009346,112.621956 L131.727833,112.621956 C133.38526,112.621956 134.72887,113.972068 134.72887,115.614341 L134.72887,136.6909 C134.72887,140.00089 137.40806,142.684168 140.737043,142.684168 L150.393031,142.684168 C153.711253,142.684168 156.401203,139.99294 156.401203,136.687094 Z M156.401203,103.284912" id="Oval 1"></path>
        </g>
    </g>
</svg>