<?xml version="1.0" encoding="UTF-8" standalone="no"?>
<svg width="206px" height="206px" viewBox="0 0 206 206" version="1.1" xmlns="http://www.w3.org/2000/svg" xmlns:xlink="http://www.w3.org/1999/xlink" xmlns:sketch="http://www.bohemiancoding.com/sketch/ns">
    <title>backfront</title>
    <description>Created with Sketch (http://www.bohemiancoding.com/sketch)</description>
    <defs></defs>
    <g id="Page 1" stroke="none" stroke-width="1" fill="none" fill-rule="evenodd">
        <g id="Group" transform="translate(0.000000, 1.000000)" stroke="#F5EBE5" fill="#373633">
            <path d="M47.3247035,105.392011 L73.6752965,129.646534 C78.5468658,134.130592 82.5,132.398743 82.5,125.77386 L82.5,68.7646842 C82.5,62.1466382 78.5490456,60.4059462 73.6752965,64.8920107 L47.3247035,89.1465338 C42.4531342,93.6305919 42.4509544,100.905946 47.3247035,105.392011 Z M105,200 C49.7715223,200 5,155.228478 5,100 C5,44.7715223 49.7715223,0 105,0 C160.228478,0 205,44.7715223 205,100 C205,155.228478 160.228478,200 105,200 Z M161.401203,98.2849122 C161.401203,91.6559245 156.023002,86.2820681 149.401385,86.2820681 L103.993183,86.2820681 C100.683239,86.2820681 98,88.9631718 98,92.2832059 L98,101.620818 C98,104.935155 100.689781,107.621956 104.000935,107.621956 L136.727833,107.621956 C138.38526,107.621956 139.72887,108.972068 139.72887,110.614341 L139.72887,131.6909 C139.72887,135.00089 142.40806,137.684168 145.737043,137.684168 L155.393031,137.684168 C158.711253,137.684168 161.401203,134.99294 161.401203,131.687094 Z M161.401203,98.2849122" id="Oval 1"></path>
        </g>
    </g>
</svg>