<?xml version="1.0" encoding="UTF-8" standalone="no"?>
<svg width="190px" height="190px" viewBox="0 0 190 190" version="1.1" xmlns="http://www.w3.org/2000/svg" xmlns:xlink="http://www.w3.org/1999/xlink" xmlns:sketch="http://www.bohemiancoding.com/sketch/ns">
    <title>designemceeicon2</title>
    <description>Created with Sketch (http://www.bohemiancoding.com/sketch)</description>
    <defs></defs>
    <g id="Page 1" stroke="none" stroke-width="1" fill="none" fill-rule="evenodd">
        <path d="M95,190 C147.467054,190 190,147.467054 190,95 C190,42.5329462 147.467054,0 95,0 C42.5329462,0 0,42.5329462 0,95 C0,147.467054 42.5329462,190 95,190 Z M95,190" id="Oval 5" fill="#3C965A"></path>
        <g id="Group copy" transform="translate(38.000000, 34.000000)">
            <path d="M20.0925392,63.5315317 C20.0925392,63.5315317 5.65496261,70.9988779 5.65496171,83.6754144 C5.65496119,96.351951 15.7226865,103.955604 22.057135,109.48468 C36.8374542,122.385803 51.6542644,121.815298 56.7517914,121.48101 C67.0077876,120.808437 77.1396783,115.829457 82.0773644,113.160018 C91.1614914,108.248908 99.9150063,100.053933 101.406245,93.6001199 C104.5152,80.1451181 91.9619179,75.512941 91.9619179,75.512941 L95.1984734,63.5315322 C95.1984734,63.5315322 104.554118,61.7378921 104.31927,54.6748084 C104.084421,47.6117248 96.2540459,46.8610114 96.2540459,46.8610114 C96.2540459,46.8610114 97.0019174,33.4360657 84.4587654,23.2355393 C71.9156136,13.0350128 45.9309392,16.8481297 37.7910446,20.8380638 C28.5525487,25.3664992 23.0361394,37.4660651 23.0361394,37.4660651 C23.0361394,37.4660651 12.6793716,35.1567532 12.6793672,42.2343958 C12.6793627,49.3120384 20.092539,52.0284499 20.092539,52.0284499 L20.0925392,63.5315317 Z M20.0925392,63.5315317" id="Path 1" fill="#373633"></path>
            <path d="M59.5236394,45.3050952 C59.5236394,45.3050952 52.193841,26.2851219 35.4391355,33.7576543 C18.6844298,41.2301864 23.6101453,67.5139103 23.6101453,67.5139103 C23.6101453,67.5139103 38.2392772,61.4172532 52.0953271,62.9923272 C69.06893,64.921786 85.2694508,74.5229764 85.2694508,74.5229764 C85.2694508,74.5229764 101.117378,46.3853945 86.3822133,38.3945427 C71.6470486,30.403691 59.5236394,45.3050952 59.5236394,45.3050952 Z M59.5236394,45.3050952" id="Path 2" fill="#F5EBE5"></path>
            <path d="M41.5,59 C45.6421358,59 49,55.6421358 49,51.5 C49,47.3578642 45.6421358,44 41.5,44 C37.3578642,44 34,47.3578642 34,51.5 C34,55.6421358 37.3578642,59 41.5,59 Z M41.5,59" id="Oval 1" stroke="#373633" fill="#F5EBE5"></path>
            <path d="M75.5,62 C78.5375663,62 81,59.5375663 81,56.5 C81,53.4624337 78.5375663,51 75.5,51 C72.4624337,51 70,53.4624337 70,56.5 C70,59.5375663 72.4624337,62 75.5,62 Z M75.5,62" id="Oval 2" stroke="#373633" fill="#F5EBE5"></path>
            <path d="M75.5,59 C76.8807119,59 78,57.8807119 78,56.5 C78,55.1192881 76.8807119,54 75.5,54 C74.1192881,54 73,55.1192881 73,56.5 C73,57.8807119 74.1192881,59 75.5,59 Z M75.5,59" id="Oval 3" fill="#373633"></path>
            <path d="M41.5,55 C43.4329967,55 45,53.4329967 45,51.5 C45,49.5670033 43.4329967,48 41.5,48 C39.5670033,48 38,49.5670033 38,51.5 C38,53.4329967 39.5670033,55 41.5,55 Z M41.5,55" id="Oval 4" fill="#373633"></path>
            <path d="M23.0853412,76.9224721 C29.7055172,69.1208537 44.2413606,68.3178235 44.2413606,68.3178235 C44.2413606,68.3178235 45.2836015,74.3624841 52.8904588,75.4117457 C60.4973161,76.4610073 65.5055814,71.0269544 65.5055814,71.0269544 C65.5055814,71.0269544 76.4988278,76.6164476 81.4731958,83.4742175 C85.866151,89.5304392 84.2402274,96.8549378 84.2402274,96.8549378 C84.2402274,96.8549378 75.436895,102.605277 62.2665553,101.487131 C54.5797936,100.834535 44.2413611,98.43351 37.2404322,95.8863889 C30.2395034,93.3392678 20.1650712,91.4150358 20.1650712,91.4150358 C20.1650712,91.4150358 16.4651658,84.7240907 23.0853412,76.9224721 Z M23.0853412,76.9224721" id="Path 3" fill="#F5EBE5"></path>
            <path d="M60.936354,104.617091 C51.7156163,103.662405 40.1849229,99.8578844 32.8225644,97.7048288 C24.4619446,95.2598411 20.8522666,94.5025969 20.8522666,94.5025969 C20.8522666,94.5025969 32.0564026,112.532872 51.9353927,113.39776 C71.8143829,114.262647 82.7365249,100.779454 82.7365249,100.779454 C82.7365249,100.779454 72.3277673,105.796522 60.936354,104.617091 Z M60.936354,104.617091" id="Path 4" fill="#F5EBE5"></path>
            <path d="M61.1738849,16.4772697 C58.0110605,16.4063465 54.7474757,16.9999995 54.7474757,16.9999995 L55.5451508,2.30685688 C55.5451508,2.30685688 56.2136161,13.2881907 58.3527048,13.929084 C60.4917936,14.5699762 62.1253007,0.957160482 62.1253007,0.957160482 C62.1253007,0.957160482 61.0329879,13.0582017 63.5287858,13.8566056 C66.0245838,14.6550093 66.6224079,1.5033167 66.6224079,1.5033167 L67.6002937,17 C67.6002937,17 64.2972608,16.5473083 61.1738849,16.4772697 Z M61.1738849,16.4772697" id="Path 5" fill="#373633"></path>
            <path d="M22.343191,47.193332 C21.036993,54.2056371 20.3313482,61.6046077 19.8631399,61.9683755 C18.9692438,62.6628755 14.3484512,60.0381712 12.5219401,59.1073335 C9.36498757,57.4984686 6.16035565,55.8356013 5.01924831,53.8367609 C2.43474676,49.3095735 4.17946843,42.7599939 4.17946843,42.7599939 L0.794767201,42.4077224 C0.794767201,42.4077224 1.19417742,40.2966775 1.47404683,36.7411149 C1.7360961,33.4119424 2.08446653,29.9761769 4.17946845,29.1704553 C5.23665591,28.7638691 8.91113233,29.0383786 10.4088562,26.5497945 C12.9904483,22.2602797 16.536474,15.310017 16.536474,15.310017 C16.536474,15.310017 32.958742,3.58873748 60.7769602,7.21286716 C88.5951784,10.8369969 108.162275,30.1733297 108.162275,30.1733297 L108.162275,41.9443544 C108.162275,41.9443544 112.061307,44.0877309 113.873274,47.8225587 C114.810395,49.7541544 114.347347,53.4513307 114.272726,54.6733278 C114.157155,56.5659304 114.404819,58.5954869 113.873274,60.3821901 C113.424422,61.890933 110.719864,61.3570306 110.719864,61.3570306 C110.719864,61.3570306 111.614377,66.1242083 108.162275,68.8602022 C106.303721,70.3332158 94.3777292,75.9260667 92.8358057,74.1934541 C91.9963602,73.2501946 94.3762627,66.3603903 95.2595347,59.4633172 C95.9986874,53.6916014 95.0888309,47.8856358 96.1264322,45.8346399 C97.6088701,42.9043489 104.846589,47.9242662 105.975179,48.6052392 C109.934393,50.9941628 109.308482,53.6091633 110.035589,53.8367609 C111.398018,54.2632258 110.719862,49.8905405 110.719862,49.8905405 L104.767925,44.4537922 L104.363813,33.8042501 C104.363813,33.8042501 86.3446101,13.878266 60.7769602,11.3811451 C35.2093104,8.88402404 21.470661,18.0801633 21.470661,18.0801633 C21.470661,18.0801633 17.6730374,22.2773977 16.536474,26.5497945 C15.7081269,29.6635918 14.3953493,32.2780736 14.3953493,32.2780736 C14.3953493,32.2780736 10.059947,32.0866528 7.77578861,34.1626504 C6.1661366,35.625611 6.60772856,39.3559901 6.60772856,39.3559901 C6.60772856,39.3559901 8.92007165,36.6670199 11.827483,35.5368455 C14.6083359,34.4558673 18.5679722,33.1265826 21.470661,33.2341875 C23.7420753,33.3183905 25.3495344,34.7532983 25.3495344,34.7532983 C25.3495344,34.7532983 23.530766,40.8178523 22.343191,47.193332 Z M22.343191,47.193332" id="Path 11 copy" fill="#F5EBE5"></path>
        </g>
    </g>
</svg>