<?xml version="1.0" encoding="UTF-8" standalone="no"?>
<svg width="190px" height="190px" viewBox="0 0 190 190" version="1.1" xmlns="http://www.w3.org/2000/svg" xmlns:xlink="http://www.w3.org/1999/xlink" xmlns:sketch="http://www.bohemiancoding.com/sketch/ns">
    <title>designemceeicon</title>
    <description>Created with Sketch (http://www.bohemiancoding.com/sketch)</description>
    <defs></defs>
    <g id="Page 1" stroke="none" stroke-width="1" fill="none" fill-rule="evenodd">
        <path d="M95,190 C147.467054,190 190,147.467054 190,95 C190,42.5329462 147.467054,0 95,0 C42.5329462,0 0,42.5329462 0,95 C0,147.467054 42.5329462,190 95,190 Z M95,190" id="Oval 5" fill="#3C965A"></path>
        <g id="Group copy" transform="translate(38.000000, 34.000000)">
            <path d="M20.0925392,63.5315317 C20.0925392,63.5315317 5.65496261,70.9988779 5.65496171,83.6754144 C5.65496119,96.351951 15.7226865,103.955604 22.057135,109.48468 C36.8374542,122.385803 51.6542644,121.815298 56.7517914,121.48101 C67.0077876,120.808437 77.1396783,115.829457 82.0773644,113.160018 C91.1614914,108.248908 99.9150063,100.053933 101.406245,93.6001199 C104.5152,80.1451181 91.9619179,75.512941 91.9619179,75.512941 L95.1984734,63.5315322 C95.1984734,63.5315322 104.554118,61.7378921 104.31927,54.6748084 C104.084421,47.6117248 96.2540459,46.8610114 96.2540459,46.8610114 C96.2540459,46.8610114 97.0019174,33.4360657 84.4587654,23.2355393 C71.9156136,13.0350128 45.9309392,16.8481297 37.7910446,20.8380638 C28.5525487,25.3664992 23.0361394,37.4660651 23.0361394,37.4660651 C23.0361394,37.4660651 12.6793716,35.1567532 12.6793672,42.2343958 C12.6793627,49.3120384 20.092539,52.0284499 20.092539,52.0284499 L20.0925392,63.5315317 Z M20.0925392,63.5315317" id="Path 1" fill="#373633"></path>
            <path d="M59.5236394,45.3050952 C59.5236394,45.3050952 52.193841,26.2851219 35.4391355,33.7576543 C18.6844298,41.2301864 23.6101453,67.5139103 23.6101453,67.5139103 C23.6101453,67.5139103 38.2392772,61.4172532 52.0953271,62.9923272 C69.06893,64.921786 85.2694508,74.5229764 85.2694508,74.5229764 C85.2694508,74.5229764 101.117378,46.3853945 86.3822133,38.3945427 C71.6470486,30.403691 59.5236394,45.3050952 59.5236394,45.3050952 Z M59.5236394,45.3050952" id="Path 2" fill="#F5EBE5"></path>
            <path d="M41.5,59 C45.6421358,59 49,55.6421358 49,51.5 C49,47.3578642 45.6421358,44 41.5,44 C37.3578642,44 34,47.3578642 34,51.5 C34,55.6421358 37.3578642,59 41.5,59 Z M41.5,59" id="Oval 1" stroke="#373633" fill="#F5EBE5"></path>
            <path d="M75.5,62 C78.5375663,62 81,59.5375663 81,56.5 C81,53.4624337 78.5375663,51 75.5,51 C72.4624337,51 70,53.4624337 70,56.5 C70,59.5375663 72.4624337,62 75.5,62 Z M75.5,62" id="Oval 2" stroke="#373633" fill="#F5EBE5"></path>
            <path d="M75.5,59 C76.8807119,59 78,57.8807119 78,56.5 C78,55.1192881 76.8807119,54 75.5,54 C74.1192881,54 73,55.1192881 73,56.5 C73,57.8807119 74.1192881,59 75.5,59 Z M75.5,59" id="Oval 3" fill="#373633"></path>
            <path d="M41.5,55 C43.4329967,55 45,53.4329967 45,51.5 C45,49.5670033 43.4329967,48 41.5,48 C39.5670033,48 38,49.5670033 38,51.5 C38,53.4329967 39.5670033,55 41.5,55 Z M41.5,55" id="Oval 4" fill="#373633"></path>
            <path d="M23.0853412,76.9224721 C29.7055172,69.1208537 44.2413606,68.3178235 44.2413606,68.3178235 C44.2413606,68.3178235 45.2836015,74.3624841 52.8904588,75.4117457 C60.4973161,76.4610073 65.5055814,71.0269544 65.5055814,71.0269544 C65.5055814,71.0269544 76.4988278,76.6164476 81.4731958,83.4742175 C85.866151,89.5304392 84.2402274,96.8549378 84.2402274,96.8549378 C84.2402274,96.8549378 75.436895,102.605277 62.2665553,101.487131 C54.5797936,100.834535 44.2413611,98.43351 37.2404322,95.8863889 C30.2395034,93.3392678 20.1650712,91.4150358 20.1650712,91.4150358 C20.1650712,91.4150358 16.4651658,84.7240907 23.0853412,76.9224721 Z M23.0853412,76.9224721" id="Path 3" fill="#F5EBE5"></path>
            <path d="M60.936354,104.617091 C51.7156163,103.662405 40.1849229,99.8578844 32.8225644,97.7048288 C24.4619446,95.2598411 20.8522666,94.5025969 20.8522666,94.5025969 C20.8522666,94.5025969 32.0564026,112.532872 51.9353927,113.39776 C71.8143829,114.262647 82.7365249,100.779454 82.7365249,100.779454 C82.7365249,100.779454 72.3277673,105.796522 60.936354,104.617091 Z M60.936354,104.617091" id="Path 4" fill="#F5EBE5"></path>
            <path d="M61.1738849,16.4772697 C58.0110605,16.4063465 54.7474757,16.9999995 54.7474757,16.9999995 L55.5451508,2.30685688 C55.5451508,2.30685688 56.2136161,13.2881907 58.3527048,13.929084 C60.4917936,14.5699762 62.1253007,0.957160482 62.1253007,0.957160482 C62.1253007,0.957160482 61.0329879,13.0582017 63.5287858,13.8566056 C66.0245838,14.6550093 66.6224079,1.5033167 66.6224079,1.5033167 L67.6002937,17 C67.6002937,17 64.2972608,16.5473083 61.1738849,16.4772697 Z M61.1738849,16.4772697" id="Path 5" fill="#373633"></path>
            <path d="M22.343191,45.1126144 C21.036993,52.1249194 20.3313482,59.52389 19.8631399,59.8876578 C18.9692438,60.5821578 14.3484512,57.9574535 12.5219401,57.0266158 C9.36498757,55.4177509 6.16035565,53.7548836 5.01924831,51.7560432 C2.43474676,47.2288558 4.17946843,40.6792762 4.17946843,40.6792762 L0.794767201,40.3270047 C0.794767201,40.3270047 1.19417742,38.2159598 1.47404683,34.6603973 C1.7360961,31.3312247 2.08446653,27.8954592 4.17946845,27.0897376 C5.23665591,26.6831514 8.91113233,26.9576609 10.4088562,24.4690768 C12.9904483,20.179562 16.536474,13.2292993 16.536474,13.2292993 C16.536474,13.2292993 32.958742,1.50801978 60.7769602,5.13214946 C88.5951784,8.75627924 108.162275,28.092612 108.162275,28.092612 L108.162275,39.8636367 C108.162275,39.8636367 112.061307,42.0070132 113.873274,45.741841 C114.810395,47.6734367 114.347347,51.370613 114.272726,52.5926101 C114.157155,54.4852127 114.404819,56.5147692 113.873274,58.3014724 C113.424422,59.8102154 110.719864,59.2763129 110.719864,59.2763129 C110.719864,59.2763129 111.614377,64.0434906 108.162275,66.7794845 C106.303721,68.2524981 94.3777292,73.845349 92.8358057,72.1127364 C91.9963602,71.1694769 94.3762627,64.2796726 95.2595347,57.3825996 C95.9986874,51.6108837 95.0888309,45.8049181 96.1264322,43.7539222 C97.6088701,40.8236312 104.846589,45.8435485 105.975179,46.5245215 C109.934393,48.9134451 109.308482,51.5284456 110.035589,51.7560432 C111.398018,52.1825081 110.719862,47.8098228 110.719862,47.8098228 L104.767925,42.3730745 L104.363813,31.7235324 C104.363813,31.7235324 86.3446101,11.7975483 60.7769602,9.30042744 C35.2093104,6.80330634 21.470661,15.9994456 21.470661,15.9994456 C21.470661,15.9994456 17.6730374,20.19668 16.536474,24.4690768 C15.7081269,27.5828741 14.3953493,30.1973559 14.3953493,30.1973559 C14.3953493,30.1973559 10.059947,30.0059351 7.77578861,32.0819327 C6.1661366,33.5448933 6.60772856,37.2752724 6.60772856,37.2752724 C6.60772856,37.2752724 8.92007165,34.5863022 11.827483,33.4561278 C14.6083359,32.3751496 18.5679722,31.0458649 21.470661,31.1534698 C23.7420753,31.2376728 25.3495344,32.6725806 25.3495344,32.6725806 C25.3495344,32.6725806 23.530766,38.7371346 22.343191,45.1126144 Z M22.343191,45.1126144" id="Path 11" fill="#286EBE"></path>
        </g>
    </g>
</svg>