<?xml version="1.0" encoding="UTF-8" standalone="no"?>
<svg width="500px" height="500px" viewBox="0 0 500 500" version="1.1" xmlns="http://www.w3.org/2000/svg" xmlns:xlink="http://www.w3.org/1999/xlink" xmlns:sketch="http://www.bohemiancoding.com/sketch/ns">
    <title>interneticon</title>
    <description>Created with Sketch (http://www.bohemiancoding.com/sketch)</description>
    <defs></defs>
    <g id="Page 1" stroke="none" stroke-width="1" fill="none" fill-rule="evenodd">
        <g id="Group copy">
            <path d="M250,500 C388.071194,500 500,388.071194 500,250 C500,111.928806 388.071194,0 250,0 C111.928806,0 0,111.928806 0,250 C0,388.071194 111.928806,500 250,500 Z M250,500" id="Oval 1" fill="#28BDF4"></path>
            <g id="Group" transform="translate(192.000000, 187.000000)" stroke="#F5EBE5">
                <path d="M120,240 C186.274173,240 240,186.274173 240,120 C240,53.7258267 186.274173,0 120,0 C53.7258267,0 0,53.7258267 0,120 C0,186.274173 53.7258267,240 120,240 Z M120,240" id="Oval 2" stroke-width="10"></path>
                <path d="M120,240 C147.614239,240 170,186.274173 170,120 C170,53.7258267 147.614239,0 120,0 C92.3857611,0 70,53.7258267 70,120 C70,186.274173 92.3857611,240 120,240 Z M120,240" id="Oval 3" stroke-width="10"></path>
                <path d="M22.5,178 C22.5,178 76.2039508,171.818634 125,171.818634 C178.703951,171.818634 227.5,178 227.5,178" id="Line" stroke-width="5" stroke-linecap="square"></path>
                <path d="M4,120 L236,120" id="Line" stroke-width="5" stroke-linecap="square"></path>
                <path d="M17.5,62 C17.5,62 70.1396119,69.4107285 120,69.4107285 C172.639612,69.4107285 222.5,62 222.5,62" id="Line" stroke-width="5" stroke-linecap="square"></path>
            </g>
            <g id="Group" transform="translate(77.000000, 82.000000)">
                <path d="M49,31 C48.4477153,31 48,31.4408979 48,31.9958767 L48,81.0041233 C48,81.5541308 48.4438648,82 49,82 L49,82 C49.5522847,82 50,81.5591021 50,81.0041233 L50,31.9958767 C50,31.4458692 49.5561352,31 49,31 L49,31 Z M49,31" id="Rectangle 2" fill="#F5EBE5"></path>
                <path d="M31,48 C30.4477153,48 30,48.4547089 30,48.9999602 L30,64.0000398 C30,64.5523026 30.4438648,65 31,65 L31,65 C31.5522847,65 32,64.5452911 32,64.0000398 L32,48.9999602 C32,48.4476974 31.5561352,48 31,48 L31,48 Z M31,48" id="Rectangle 2" fill="#F5EBE5"></path>
                <path d="M67,31 C66.4477153,31 66,31.4408979 66,31.9958767 L66,81.0041233 C66,81.5541308 66.4438648,82 67,82 L67,82 C67.5522847,82 68,81.5591021 68,81.0041233 L68,31.9958767 C68,31.4458692 67.5561352,31 67,31 L67,31 Z M67,31" id="Rectangle 2" fill="#F5EBE5"></path>
                <path d="M76,38 C75.4477153,38 75,38.4413032 75,39.0088498 L75,73.9911502 C75,74.5483226 75.4438648,75 76,75 L76,75 C76.5522847,75 77,74.5586968 77,73.9911502 L77,39.0088498 C77,38.4516774 76.5561352,38 76,38 L76,38 Z M76,38" id="Rectangle 2" fill="#F5EBE5"></path>
                <path d="M40,38 C39.4477153,38 39,38.4413032 39,39.0088498 L39,73.9911502 C39,74.5483226 39.4438648,75 40,75 L40,75 C40.5522847,75 41,74.5586968 41,73.9911502 L41,39.0088498 C41,38.4516774 40.5561352,38 40,38 L40,38 Z M40,38" id="Rectangle 2" fill="#F5EBE5"></path>
                <path d="M85,48 C84.4477153,48 84,48.4547089 84,48.9999602 L84,64.0000398 C84,64.5523026 84.4438648,65 85,65 L85,65 C85.5522847,65 86,64.5452911 86,64.0000398 L86,48.9999602 C86,48.4476974 85.5561352,48 85,48 L85,48 Z M85,48" id="Rectangle 2" fill="#F5EBE5"></path>
                <path d="M58,29 C57.4477153,29 57,29.4427194 57,30.0015783 L57,82.9984217 C57,83.5515781 57.4438648,84 58,84 L58,84 C58.5522847,84 59,83.5572806 59,82.9984217 L59,30.0015783 C59,29.4484219 58.5561352,29 58,29 L58,29 Z M58,29" id="Rectangle 2" fill="#F5EBE5"></path>
                <path d="M58,125 C63.5228478,125 68,120.522848 68,115 C68,109.477152 63.5228478,105 58,105 C52.4771522,105 48,109.477152 48,115 C48,120.522848 52.4771522,125 58,125 Z M58,125" id="Oval 8" stroke="#F5EBE5" stroke-width="2"></path>
                <path d="M87,120 C89.7614239,120 92,117.761424 92,115 C92,112.238576 89.7614239,110 87,110 C84.2385761,110 82,112.238576 82,115 C82,117.761424 84.2385761,120 87,120 Z M87,120" id="Oval 8" stroke="#F5EBE5"></path>
                <path d="M29,120 C31.7614239,120 34,117.761424 34,115 C34,112.238576 31.7614239,110 29,110 C26.2385761,110 24,112.238576 24,115 C24,117.761424 26.2385761,120 29,120 Z M29,120" id="Oval 8" stroke="#F5EBE5"></path>
                <path d="M58,0 C25.9674845,0 0,25.9633714 0,57.9927703 L0,131.993453 C0,140.28134 6.71681422,147 15.0015514,147 L100.998449,147 C109.283577,147 116,140.277534 116,131.993453 L116,57.9927703 C116,25.9642477 90.0395586,0 58,0 L58,0 Z M58,0" id="Rectangle 1" stroke="#F5EBE5" stroke-width="10"></path>
                <path d="M58,92 C77.882252,92 94,75.882252 94,56 C94,36.117748 77.882252,20 58,20 C38.117748,20 22,36.117748 22,56 C22,75.882252 38.117748,92 58,92 Z M58,92" id="Oval 7" stroke="#F5EBE5" stroke-width="3"></path>
            </g>
        </g>
    </g>
</svg>