<?xml version="1.0" encoding="UTF-8" standalone="no"?>
<svg width="500px" height="500px" viewBox="0 0 500 500" version="1.1" xmlns="http://www.w3.org/2000/svg" xmlns:xlink="http://www.w3.org/1999/xlink" xmlns:sketch="http://www.bohemiancoding.com/sketch/ns">
    <title>interneticon2</title>
    <description>Created with Sketch (http://www.bohemiancoding.com/sketch)</description>
    <defs></defs>
    <g id="Page 1" stroke="none" stroke-width="1" fill="none" fill-rule="evenodd">
        <g id="Group copy 2">
            <path d="M250,500 C388.071194,500 500,388.071194 500,250 C500,111.928806 388.071194,0 250,0 C111.928806,0 0,111.928806 0,250 C0,388.071194 111.928806,500 250,500 Z M250,500" id="Oval 1" fill="#28BDF4"></path>
            <g id="Group" transform="translate(192.000000, 187.000000)" stroke="#F5EBE5">
                <path d="M120,240 C186.274173,240 240,186.274173 240,120 C240,53.7258267 186.274173,0 120,0 C53.7258267,0 0,53.7258267 0,120 C0,186.274173 53.7258267,240 120,240 Z M120,240" id="Oval 2" stroke-width="10"></path>
                <path d="M120,240 C147.614239,240 170,186.274173 170,120 C170,53.7258267 147.614239,0 120,0 C92.3857611,0 70,53.7258267 70,120 C70,186.274173 92.3857611,240 120,240 Z M120,240" id="Oval 3" stroke-width="10"></path>
                <path d="M22.5,178 C22.5,178 76.2039508,171.818634 125,171.818634 C178.703951,171.818634 227.5,178 227.5,178" id="Line" stroke-width="5" stroke-linecap="square"></path>
                <path d="M4,120 L236,120" id="Line" stroke-width="5" stroke-linecap="square"></path>
                <path d="M17.5,62 C17.5,62 70.1396119,69.4107285 120,69.4107285 C172.639612,69.4107285 222.5,62 222.5,62" id="Line" stroke-width="5" stroke-linecap="square"></path>
            </g>
            <g id="Group" transform="translate(77.000000, 82.000000)">
                <path d="M58,125 C63.5228478,125 68,120.522848 68,115 C68,109.477152 63.5228478,105 58,105 C52.4771522,105 48,109.477152 48,115 C48,120.522848 52.4771522,125 58,125 Z M58,125" id="Oval 8" fill="#F5EBE5"></path>
                <path d="M87,120 C89.7614239,120 92,117.761424 92,115 C92,112.238576 89.7614239,110 87,110 C84.2385761,110 82,112.238576 82,115 C82,117.761424 84.2385761,120 87,120 Z M87,120" id="Oval 8" fill="#F5EBE5"></path>
                <path d="M29,120 C31.7614239,120 34,117.761424 34,115 C34,112.238576 31.7614239,110 29,110 C26.2385761,110 24,112.238576 24,115 C24,117.761424 26.2385761,120 29,120 Z M29,120" id="Oval 8" fill="#F5EBE5"></path>
                <path d="M58,0 C25.9674845,0 0,25.9633714 0,57.9927703 L0,131.993453 C0,140.28134 6.71681422,147 15.0015514,147 L100.998449,147 C109.283577,147 116,140.277534 116,131.993453 L116,57.9927703 C116,25.9642477 90.0395586,0 58,0 L58,0 Z M58,0" id="Rectangle 1" stroke="#F5EBE5" stroke-width="10"></path>
                <path d="M58,92 C77.882252,92 94,75.882252 94,56 C94,36.117748 77.882252,20 58,20 C38.117748,20 22,36.117748 22,56 C22,75.882252 38.117748,92 58,92 Z M58,92" id="Oval 7" fill="#F5EBE5"></path>
            </g>
        </g>
    </g>
</svg>