<?xml version="1.0" encoding="UTF-8" standalone="no"?>
<svg width="650px" height="650px" viewBox="0 0 650 650" version="1.1" xmlns="http://www.w3.org/2000/svg" xmlns:xlink="http://www.w3.org/1999/xlink" xmlns:sketch="http://www.bohemiancoding.com/sketch/ns">
    <title>interneticon3inverse</title>
    <description>Created with Sketch (http://www.bohemiancoding.com/sketch)</description>
    <defs></defs>
    <g id="Page 1" stroke="none" stroke-width="1" fill="none" fill-rule="evenodd">
        <g id="Group copy 4">
            <path d="M325,650 C504.492553,650 650,504.492553 650,325 C650,145.507447 504.492553,0 325,0 C145.507447,0 0,145.507447 0,325 C0,504.492553 145.507447,650 325,650 Z M325,650" id="Oval 1" fill="#F5EBE5"></path>
            <g id="Group" transform="translate(156.000000, 93.000000)">
                <path d="M169,373 C185.568543,373 199,359.344686 199,342.5 C199,325.655314 185.568543,312 169,312 C152.431457,312 139,325.655314 139,342.5 C139,359.344686 152.431457,373 169,373 Z M169,373" id="Oval 8" fill="#28BDF4"></path>
                <path d="M257,357 C265.284272,357 272,350.284272 272,342 C272,333.715728 265.284272,327 257,327 C248.715728,327 242,333.715728 242,342 C242,350.284272 248.715728,357 257,357 Z M257,357" id="Oval 8" fill="#28BDF4"></path>
                <path d="M82,357 C90.2842717,357 97,350.284272 97,342 C97,333.715728 90.2842717,327 82,327 C73.7157283,327 67,333.715728 67,342 C67,350.284272 73.7157283,357 82,357 Z M82,357" id="Oval 8" fill="#28BDF4"></path>
                <path d="M168.009771,0 C75.2205365,0 0,75.2170448 0,167.991786 L0,412.997592 C0,426.806041 11.1976817,438 24.9912108,438 L313.008789,438 C326.811054,438 338,426.815967 338,412.997592 L338,167.991786 C338,75.2124847 262.776967,0 169.990229,0 L168.009771,0 Z M168.009771,0" id="Rectangle 10" stroke="#28BDF4" stroke-width="14"></path>
                <g transform="translate(60.000000, 51.000000)" stroke="#28BDF4">
                    <path d="M109.5,219 C169.975183,219 219,169.975183 219,109.5 C219,49.0248169 169.975183,0 109.5,0 C49.0248169,0 0,49.0248169 0,109.5 C0,169.975183 49.0248169,219 109.5,219 Z M109.5,219" id="Oval 2" stroke-width="10"></path>
                    <path d="M109.5,219 C134.628957,219 155,169.975183 155,109.5 C155,49.0248169 134.628957,0 109.5,0 C84.3710426,0 64,49.0248169 64,109.5 C64,169.975183 84.3710426,219 109.5,219 Z M109.5,219" id="Oval 3" stroke-width="10"></path>
                    <path d="M21,163 C21,163 69.988482,157 114.5,157 C163.488482,157 208,163 208,163" id="Line" stroke-width="5" stroke-linecap="square"></path>
                    <path d="M4,110 L216,110" id="Line" stroke-width="5" stroke-linecap="square"></path>
                    <path d="M16,57 C16,57 64.0175972,64 109.5,64 C157.517597,64 203,57 203,57" id="Line" stroke-width="5" stroke-linecap="square"></path>
                </g>
            </g>
        </g>
    </g>
</svg>