<?xml version="1.0" encoding="UTF-8" standalone="no"?>
<svg width="300px" height="300px" viewBox="0 0 300 300" version="1.1" xmlns="http://www.w3.org/2000/svg" xmlns:xlink="http://www.w3.org/1999/xlink" xmlns:sketch="http://www.bohemiancoding.com/sketch/ns">
    <title>processingiconinverse</title>
    <description>Created with Sketch (http://www.bohemiancoding.com/sketch)</description>
    <defs></defs>
    <g id="Page 1" stroke="none" stroke-width="1" fill="none" fill-rule="evenodd">
        <g id="Group copy">
            <path d="M150,300 C232.842717,300 300,232.842717 300,150 C300,67.1572834 232.842717,0 150,0 C67.1572834,0 0,67.1572834 0,150 C0,232.842717 67.1572834,300 150,300 Z M150,300" id="Oval 25" fill="#F5EBE5"></path>
            <g id="layer3" transform="translate(97.000000, 60.000000)" fill="#5FED8E">
                <path d="M0.821236559,0.34375 L0.821236559,176.09375 L21.7627688,176.09375 L21.7627688,122.5625 L65.6673387,122.5625 C80.9396703,122.5625 93.2103495,110.42236 93.2103495,95.3125 L93.2103495,27.625 C93.2103495,12.515136 80.9396703,0.34375 65.6673387,0.34375 L0.821236559,0.34375 L0.821236559,0.34375 Z M21.7627688,20.28125 L27.890457,20.28125 L46.936828,20.28125 L66.1727151,20.28125 C69.5665699,20.28125 72.3004032,22.986002 72.3004032,26.34375 L72.3004032,95.8125 C72.3004032,99.17025 69.5665699,101.875 66.1727151,101.875 L46.936828,101.875 L27.890457,101.875 L21.7627688,101.875 L21.7627688,95.8125 L21.7627688,26.34375 L21.7627688,20.28125 L21.7627688,20.28125 Z M21.7627688,20.28125" id="rect2887"></path>
            </g>
            <g id="layer5" transform="translate(159.000000, 206.000000)" fill="#5FED8E">
                <path d="M17.09375,0.78125 C8.11912,0.78125 0.84375,8.05662 0.84375,17.03125 C0.84375,26.00588 8.11912,33.28125 17.09375,33.28125 C26.06838,33.28125 33.34375,26.00588 33.34375,17.03125 C33.34375,8.05662 26.06838,0.78125 17.09375,0.78125 L17.09375,0.78125 Z M12.28125,9.71875 L24.78125,17.21875 L12.28125,24.34375 L12.28125,9.71875 L12.28125,9.71875 Z M12.28125,9.71875" id="path3918"></path>
                <path d="M52.8125,0.78125 C43.83787,0.78125 36.5625,8.05662 36.5625,17.03125 C36.5625,26.00588 43.83787,33.28125 52.8125,33.28125 C61.78713,33.28125 69.0625,26.00588 69.0625,17.03125 C69.0625,8.05662 61.78713,0.78125 52.8125,0.78125 L52.8125,0.78125 Z M47.28125,11.5 L58.71875,11.5 L58.71875,22.9375 L47.28125,22.9375 L47.28125,11.5 L47.28125,11.5 Z M47.28125,11.5" id="path3918-1"></path>
            </g>
        </g>
    </g>
</svg>