<?xml version="1.0" encoding="UTF-8" standalone="no"?>
<svg width="450px" height="450px" viewBox="0 0 450 450" version="1.1" xmlns="http://www.w3.org/2000/svg" xmlns:xlink="http://www.w3.org/1999/xlink" xmlns:sketch="http://www.bohemiancoding.com/sketch/ns">
    <title>vacuumicon</title>
    <description>Created with Sketch (http://www.bohemiancoding.com/sketch)</description>
    <defs></defs>
    <g id="Page 1" stroke="none" stroke-width="1" fill="none" fill-rule="evenodd">
        <g id="Vacuum">
            <path d="M225,450 C349.264075,450 450,349.264075 450,225 C450,100.735925 349.264075,0 225,0 C100.735925,0 0,100.735925 0,225 C0,349.264075 100.735925,450 225,450 Z M225,450" id="Oval 11" fill="#286EBE"></path>
            <g id="Group" transform="translate(86.000000, 92.000000)" fill="#F5EBE5">
                <path d="M277.861988,7.38103302 C277.861988,1.14969617 270.735859,0.625511249 270.735859,0.625511249 L201.971287,0.625511249 L82.4423479,212.211479 C82.4423479,212.211479 50.3996972,215.274435 27.3037111,228.198357 C8.06653395,238.96299 0.889850758,257.767143 0.889850758,257.767143 L0.889850758,262.505443 C0.889850758,262.505443 126.813183,262.505455 126.813183,262.505443 C126.813183,262.505441 126.870335,265.135064 133.123127,265.135063 C139.37592,265.135063 139.375918,262.505451 139.37592,262.505455 C139.375925,262.505473 150.38422,262.505443 150.38422,262.505443 L150.38422,243.76179 L139.375919,243.76179 C139.375919,243.76179 139.375926,234.730614 126.813182,224.837364 C114.250439,214.944114 105.37051,215.16169 105.37051,215.16169 L212.74979,18.0335685 L270.735859,18.0335685 C270.735859,18.0335685 277.861988,12.1865557 277.861988,7.38103302 Z M277.861988,7.38103302" id="Path 7"></path>
                <path d="M214.28514,38.2045166 L127.922035,193.88339 C127.922035,193.88339 162.20383,244.194044 205.966216,165.576314 C249.728599,86.9585775 214.28514,38.2045166 214.28514,38.2045166 Z M214.28514,38.2045166" id="Path 8"></path>
            </g>
        </g>
    </g>
</svg>